<svg xmlns="http://www.w3.org/2000/svg" version="1.1" xmlns:xlink="http://www.w3.org/1999/xlink" xmlns:svgjs="http://svgjs.dev/svgjs" width="1000" height="1000" viewBox="0 0 1000 1000"><rect width="1000" height="1000" fill="#000000"></rect><g transform="matrix(0.7,0,0,0.7,149.57575757575756,400.3414065108595)"><svg viewBox="0 0 396 113" data-background-color="#ffffff" preserveAspectRatio="xMidYMid meet" height="285" width="1000" xmlns="http://www.w3.org/2000/svg" xmlns:xlink="http://www.w3.org/1999/xlink"><g id="tight-bounds" transform="matrix(1,0,0,1,0.2400000000000091,-0.05177411392043041)"><svg viewBox="0 0 395.52 113.10354822784088" height="113.10354822784088" width="395.52"><g><svg viewBox="0 0 578.2839762862259 165.36703479287203" height="113.10354822784088" width="395.52"><g transform="matrix(1,0,0,1,0,22.85463360740851)"><svg viewBox="0 0 395.52 119.65776757805502" height="119.65776757805502" width="395.52"><g id="textblocktransform"><svg viewBox="0 0 395.52 119.65776757805502" height="119.65776757805502" width="395.52" id="textblock"><g><svg viewBox="0 0 395.52 73.69212242393947" height="73.69212242393947" width="395.52"><g transform="matrix(1,0,0,1,0,0)"><svg width="395.52" viewBox="0.75 -40.5 220.03500366210938 41" height="73.69212242393947" data-palette-color="#113f67"><path d="M17.35-34.65L17.35-2Q17.35 0.4 14.35 0.4L14.35 0.4Q11.4 0.4 11.4-2L11.4-2 11.4-34.65 2.65-34.65Q0.85-34.65 0.75-37.2L0.75-37.2Q0.75-39.7 2.65-39.7L2.65-39.7 26.1-39.7Q28-39.7 27.9-37.2L27.9-37.2Q27.9-34.65 26.1-34.65L26.1-34.65 17.35-34.65ZM38.5-37.55L38.5-2.1Q38.5 0.3 35.5 0.3L35.5 0.3Q32.55 0.3 32.55-2.1L32.55-2.1 32.55-37.55Q32.55-39.95 35.5-39.95L35.5-39.95Q38.5-39.95 38.5-37.55L38.5-37.55ZM68.65-10.5L68.65-37.55Q68.65-39.95 71.59-39.95L71.59-39.95Q74.55-39.95 74.55-37.55L74.55-37.55 74.55-3.05Q74.55-1.3 72.7-0.5L72.7-0.5 72.75-0.5Q71.95-0.15 71.05 0.05 70.15 0.25 69.3 0.25L69.3 0.25Q68.65 0.25 67.95 0.13 67.25 0 66.62-0.28 66-0.55 65.47-1.03 64.95-1.5 64.65-2.2L64.65-2.2 53.8-29.25 52.45-29.1 52.45-2.1Q52.45 0.3 49.45 0.3L49.45 0.3Q46.5 0.3 46.5-2.1L46.5-2.1 46.5-36.55Q46.5-38.6 48.3-39.3L48.3-39.3Q49.95-39.95 51.8-39.95L51.8-39.95Q53.1-39.95 54.42-39.43 55.75-38.9 56.45-37.45L56.45-37.45 67.25-10.35 68.65-10.5ZM96.59-15.15L96.59-2Q96.59 0.4 93.64 0.4L93.64 0.4Q90.69 0.4 90.69-2L90.69-2 90.69-15.3 79.49-36.6Q79.19-37.25 79.19-37.95L79.19-37.95Q79.19-39.4 80.89-40.1L80.89-40.1 80.84-40.1Q81.94-40.5 82.59-40.5L82.59-40.5Q83.89-40.5 84.59-39.2L84.59-39.2 93.69-22.1Q94.69-24 95.84-26.18 96.99-28.35 98.17-30.6 99.34-32.85 100.49-35.05 101.64-37.25 102.69-39.2L102.69-39.2Q103.09-39.8 103.57-40.15 104.04-40.5 104.74-40.5L104.74-40.5Q105.44-40.5 106.39-40.1L106.39-40.1 106.34-40.1Q108.09-39.35 108.09-37.9L108.09-37.9Q108.09-37.6 108.04-37.27 107.99-36.95 107.79-36.6L107.79-36.6Q107.34-35.7 106.67-34.4 105.99-33.1 104.77-30.78 103.54-28.45 101.59-24.73 99.64-21 96.59-15.15L96.59-15.15ZM155.04-37.55L155.04-8Q155.04-3.95 152.34-1.95L152.34-1.95Q151.04-1 149.66-0.48 148.29 0.05 146.99 0.05L146.99 0.05 136.09 0.05Q134.79 0.05 133.41-0.48 132.04-1 130.74-1.95L130.74-1.95Q129.44-2.95 128.74-4.42 128.04-5.9 128.04-8L128.04-8 128.04-37.55Q128.04-39.95 130.99-39.95L130.99-39.95Q133.99-39.95 133.99-37.55L133.99-37.55 133.99-8.4Q133.99-7.1 134.74-6.05 135.49-5 137.34-5L137.34-5 145.74-5Q147.59-5 148.34-6.05 149.09-7.1 149.09-8.4L149.09-8.4 149.09-37.55Q149.09-39.95 152.04-39.95L152.04-39.95Q155.04-39.95 155.04-37.55L155.04-37.55ZM186.28-0.6L176.84-16.45 172.99-16.45Q172.13-16.45 171.66-17.13 171.19-17.8 171.19-18.95L171.19-18.95Q171.19-21.5 173.28-21.5L173.28-21.5 179.13-21.5Q180.99-21.5 181.74-22.55 182.49-23.6 182.49-24.85L182.49-24.85 182.49-31.3Q182.49-32.55 181.74-33.6 180.99-34.65 179.13-34.65L179.13-34.65 168.59-34.65 168.59-2.05Q168.59 0.35 165.63 0.35L165.63 0.35Q162.69 0.35 162.69-2.05L162.69-2.05 162.69-36.7Q162.69-38.5 163.61-39.1 164.53-39.7 165.84-39.7L165.84-39.7 180.38-39.7Q181.69-39.7 183.09-39.15 184.49-38.6 185.78-37.75L185.78-37.75 185.74-37.75Q187.03-36.8 187.74-35.27 188.44-33.75 188.44-31.75L188.44-31.75 188.44-24.45Q188.44-20.4 185.74-18.4L185.74-18.4Q185.19-18 184.56-17.65 183.94-17.3 183.28-16.95L183.28-16.95 191.28-3.75Q191.44-3.5 191.59-3.1 191.74-2.7 191.74-2.45L191.74-2.45Q191.74-1.25 190.03-0.15L190.03-0.15 190.03-0.2Q188.88 0.5 188.09 0.5L188.09 0.5Q186.94 0.5 186.24-0.65L186.24-0.65 186.28-0.6ZM218.98 0.05L199.53 0.05Q197.68 0.05 197.03-0.9 196.38-1.85 196.38-3L196.38-3 196.38-37.55Q196.38-39.95 199.28-39.95L199.28-39.95Q202.28-39.95 202.28-37.55L202.28-37.55 202.28-5 218.98-5Q220.78-5 220.78-2.55L220.78-2.55Q220.88 0.05 218.98 0.05L218.98 0.05Z" opacity="1" transform="matrix(1,0,0,1,0,0)" fill="#ffffff" class="wordmark-text-0" data-fill-palette-color="primary" id="text-0"></path></svg></g></svg></g><g transform="matrix(1,0,0,1,163.310208,91.0890639172934)"><svg viewBox="0 0 232.209792 28.568703660761614" height="28.568703660761614" width="232.209792"><g transform="matrix(1,0,0,1,0,0)"><svg width="232.209792" viewBox="2 -32.70000076293945 358.4100036621094 44.099998474121094" height="28.568703660761614" data-palette-color="#87c0cd"><path d="M14.3-11.2L14.3-11.65 14.35-13.4 14.35-15.15Q14.35-21 10.55-21L10.55-21Q8.9-21 7.98-19.88 7.05-18.75 7.05-17.25 7.05-15.75 7.45-14.65L7.45-14.65Q6.6-13.9 5.1-13.9 3.6-13.9 3.6-16.35 3.6-18.8 5.53-20.5 7.45-22.2 11-22.2L11-22.2Q17.95-22.2 17.95-14L17.95-14 17.95-3.75Q17.95-1.05 19.45-1.05L19.45-1.05Q20.15-1.05 20.68-1.7 21.2-2.35 21.2-3.2 21.2-4.05 21.05-4.8L21.05-4.8 22-4.95Q22.2-4.2 22.2-3.3L22.2-3.3Q22.2-1.5 21.13-0.45 20.05 0.6 18.3 0.6 16.55 0.6 15.45-0.83 14.35-2.25 14.35-5.1L14.35-5.1 14.35-6Q13.5-2.6 11.65-1 9.8 0.6 7.38 0.6 4.95 0.6 3.48-0.93 2-2.45 2-4.98 2-7.5 4.35-9.47 6.7-11.45 11.1-11.45L11.1-11.45Q12.05-11.45 14.3-11.2L14.3-11.2ZM8.5-1.3L8.5-1.3Q10.6-1.3 12.28-3.68 13.95-6.05 14.25-10.35L14.25-10.35Q13.75-10.4 12.85-10.4L12.85-10.4Q8.85-10.4 7.13-8.72 5.4-7.05 5.4-4.85L5.4-4.85Q5.4-3.4 6.25-2.35 7.1-1.3 8.5-1.3ZM56.85-21L56.85-21 56.45-21.05Q56-24.15 54.2-24.15L54.2-24.15Q53.3-24.15 52.55-23.2 51.8-22.25 51.65-20.7L51.65-20.7Q54.35-18.65 54.35-15 54.35-11.35 52.22-9.38 50.1-7.4 46.7-7.4L46.7-7.4 42.25-7.4Q41-7.4 40.32-6.7 39.65-6 39.65-5.05 39.65-4.1 40.32-3.4 41-2.7 42.25-2.7L42.25-2.7 50.6-2.7Q53.6-2.7 55.12-1.33 56.65 0.05 56.65 2.15L56.65 2.15Q56.65 5.5 53.5 8.45 50.35 11.4 45.65 11.4L45.65 11.4Q42.05 11.4 39.8 9.7 37.55 8 37.55 5.4 37.55 2.8 40.3 0.4L40.3 0.4Q39 0.05 38.22-1.07 37.45-2.2 37.45-3.85 37.45-5.5 38.65-6.83 39.85-8.15 42.25-8.15L42.25-8.15 43-8.15Q39.1-9.95 39.1-14.8L39.1-14.8Q39.1-18.25 41.2-20.23 43.3-22.2 46.7-22.2L46.7-22.2Q48.95-22.2 50.65-21.3L50.65-21.3Q51-23.3 52.07-24.6 53.15-25.9 54.92-25.9 56.7-25.9 57.87-24.95 59.05-24 59.05-22.9L59.05-22.9Q59.05-21 56.85-21ZM50.6 0.6L50.6 0.6 41.85 0.6Q40.25 2.45 40.25 4.8 40.25 7.15 41.65 8.68 43.05 10.2 46.17 10.2 49.3 10.2 51.85 8 54.4 5.8 54.4 3.45L54.4 3.45Q54.4 2.2 53.45 1.4 52.5 0.6 50.6 0.6ZM43.8-19.4Q42.65-17.7 42.65-14.8 42.65-11.9 43.8-10.2 44.95-8.5 46.7-8.5 48.45-8.5 49.62-10.2 50.8-11.9 50.8-14.8 50.8-17.7 49.62-19.4 48.45-21.1 46.7-21.1 44.95-21.1 43.8-19.4ZM62.94-2.45Q60.14-5.5 60.14-10.8 60.14-16.1 62.94-19.15 65.74-22.2 70.24-22.2 74.74-22.2 77.57-19.15 80.39-16.1 80.39-10.8 80.39-5.5 77.57-2.45 74.74 0.6 70.24 0.6 65.74 0.6 62.94-2.45ZM65.74-18.32Q63.94-15.55 63.94-10.8 63.94-6.05 65.74-3.28 67.54-0.5 70.24-0.5 72.94-0.5 74.77-3.28 76.59-6.05 76.59-10.8 76.59-15.55 74.77-18.32 72.94-21.1 70.24-21.1 67.54-21.1 65.74-18.32ZM87.19-2.45Q84.39-5.5 84.39-10.8 84.39-16.1 87.19-19.15 89.99-22.2 94.49-22.2 98.99-22.2 101.82-19.15 104.64-16.1 104.64-10.8 104.64-5.5 101.82-2.45 98.99 0.6 94.49 0.6 89.99 0.6 87.19-2.45ZM89.99-18.32Q88.19-15.55 88.19-10.8 88.19-6.05 89.99-3.28 91.79-0.5 94.49-0.5 97.19-0.5 99.02-3.28 100.84-6.05 100.84-10.8 100.84-15.55 99.02-18.32 97.19-21.1 94.49-21.1 91.79-21.1 89.99-18.32ZM123.49 0.3L123.49 0.3 123.49-4Q120.69 0.6 116.86 0.6 113.04 0.6 110.84-2.45 108.64-5.5 108.64-10.75 108.64-16 111.44-19.1 114.24-22.2 118.49-22.2L118.49-22.2Q121.24-22.2 123.49-20.85L123.49-20.85 123.49-30.8Q123.49-31.5 122.79-31.5L122.79-31.5 120.44-31.5 120.44-32.4 122.89-32.4Q125.89-32.4 127.09-32.7L127.09-32.7 127.09-1.6Q127.09-0.9 127.79-0.9L127.79-0.9 130.14-0.9 130.14 0 127.69 0Q124.69 0 123.49 0.3ZM118.61-20.7Q116.04-20.7 114.24-18.13 112.44-15.55 112.44-10.95 112.44-6.35 113.91-3.83 115.39-1.3 117.64-1.3L117.64-1.3Q120.89-1.3 123.49-5.85L123.49-5.85 123.49-19.3Q121.19-20.7 118.61-20.7ZM148.68-1.6L148.68-1.6 148.68-30.8Q148.68-31.5 147.98-31.5L147.98-31.5 145.63-31.5 145.63-32.4 148.08-32.4Q151.08-32.4 152.28-32.7L152.28-32.7 152.28-1.6Q152.28-0.9 152.98-0.9L152.98-0.9 155.33-0.9 155.33 0 145.63 0 145.63-0.9 147.98-0.9Q148.68-0.9 148.68-1.6ZM161.63-2.45Q158.83-5.5 158.83-10.8 158.83-16.1 161.63-19.15 164.43-22.2 168.93-22.2 173.43-22.2 176.26-19.15 179.08-16.1 179.08-10.8 179.08-5.5 176.26-2.45 173.43 0.6 168.93 0.6 164.43 0.6 161.63-2.45ZM164.43-18.32Q162.63-15.55 162.63-10.8 162.63-6.05 164.43-3.28 166.23-0.5 168.93-0.5 171.63-0.5 173.46-3.28 175.28-6.05 175.28-10.8 175.28-15.55 173.46-18.32 171.63-21.1 168.93-21.1 166.23-21.1 164.43-18.32ZM185.88-2.45Q183.08-5.5 183.08-10.8 183.08-16.1 185.88-19.15 188.68-22.2 193.18-22.2 197.68-22.2 200.5-19.15 203.33-16.1 203.33-10.8 203.33-5.5 200.5-2.45 197.68 0.6 193.18 0.6 188.68 0.6 185.88-2.45ZM188.68-18.32Q186.88-15.55 186.88-10.8 186.88-6.05 188.68-3.28 190.48-0.5 193.18-0.5 195.88-0.5 197.7-3.28 199.53-6.05 199.53-10.8 199.53-15.55 197.7-18.32 195.88-21.1 193.18-21.1 190.48-21.1 188.68-18.32ZM209.88-1.6L209.88-1.6 209.88-30.8Q209.88-31.5 209.18-31.5L209.18-31.5 206.83-31.5 206.83-32.4 209.28-32.4Q212.28-32.4 213.48-32.7L213.48-32.7 213.48-1.5Q213.48-0.9 214.18-0.9L214.18-0.9 216.53-0.9 216.53 0 206.83 0 206.83-0.9 209.18-0.9Q209.88-0.9 209.88-1.6ZM220.18-20.7L220.18-21.6 226.88-21.6 226.88-20.7 225.03-20.7Q224.63-20.7 224.13-20.2L224.13-20.2 217.68-12.85 225.63-1.3Q225.88-0.9 226.33-0.9L226.33-0.9 228.38-0.9 228.38 0 226.03 0Q223.63 0 222.43 0.3L222.43 0.3 214.43-11.35 222.73-20.7 220.18-20.7ZM233.17-1.6L233.17-1.6 233.17-20Q233.17-20.7 232.47-20.7L232.47-20.7 230.12-20.7 230.12-21.6 232.57-21.6Q235.57-21.6 236.77-21.9L236.77-21.9 236.77-1.5Q236.77-0.9 237.47-0.9L237.47-0.9 239.82-0.9 239.82 0 230.12 0 230.12-0.9 232.47-0.9Q233.17-0.9 233.17-1.6ZM233.3-27.13Q232.62-27.8 232.62-28.8 232.62-29.8 233.3-30.48 233.97-31.15 234.97-31.15 235.97-31.15 236.65-30.48 237.32-29.8 237.32-28.8 237.32-27.8 236.65-27.13 235.97-26.45 234.97-26.45 233.97-26.45 233.3-27.13ZM263.92-14.6L263.92-14.6 263.92-1.5Q263.92-0.9 264.62-0.9L264.62-0.9 266.97-0.9 266.97 0 257.97 0 257.97-0.9 259.62-0.9Q260.32-0.9 260.32-1.5L260.32-1.5 260.32-15.25Q260.32-17.8 259.2-19.03 258.07-20.25 256.22-20.25L256.22-20.25Q253.62-20.25 251.92-17.18 250.22-14.1 250.22-8.35L250.22-8.35 250.22-1.6Q250.22-0.9 250.92-0.9L250.92-0.9 252.57-0.9 252.57 0 243.57 0 243.57-0.9 245.92-0.9Q246.62-0.9 246.62-1.5L246.62-1.5 246.62-20Q246.62-20.7 245.92-20.7L245.92-20.7 243.57-20.7 243.57-21.6 246.02-21.6Q249.02-21.6 250.22-21.9L250.22-21.9 250.22-15.1Q251.92-22.2 257.72-22.2L257.72-22.2Q260.32-22.2 262.12-20.33 263.92-18.45 263.92-14.6ZM290.12-21L290.12-21 289.72-21.05Q289.27-24.15 287.47-24.15L287.47-24.15Q286.57-24.15 285.82-23.2 285.07-22.25 284.92-20.7L284.92-20.7Q287.62-18.65 287.62-15 287.62-11.35 285.49-9.38 283.37-7.4 279.97-7.4L279.97-7.4 275.52-7.4Q274.27-7.4 273.59-6.7 272.92-6 272.92-5.05 272.92-4.1 273.59-3.4 274.27-2.7 275.52-2.7L275.52-2.7 283.87-2.7Q286.87-2.7 288.39-1.33 289.92 0.05 289.92 2.15L289.92 2.15Q289.92 5.5 286.77 8.45 283.62 11.4 278.92 11.4L278.92 11.4Q275.32 11.4 273.07 9.7 270.82 8 270.82 5.4 270.82 2.8 273.57 0.4L273.57 0.4Q272.27 0.05 271.49-1.07 270.72-2.2 270.72-3.85 270.72-5.5 271.92-6.83 273.12-8.15 275.52-8.15L275.52-8.15 276.27-8.15Q272.37-9.95 272.37-14.8L272.37-14.8Q272.37-18.25 274.47-20.23 276.57-22.2 279.97-22.2L279.97-22.2Q282.22-22.2 283.92-21.3L283.92-21.3Q284.27-23.3 285.34-24.6 286.42-25.9 288.19-25.9 289.97-25.9 291.14-24.95 292.32-24 292.32-22.9L292.32-22.9Q292.32-21 290.12-21ZM283.87 0.6L283.87 0.6 275.12 0.6Q273.52 2.45 273.52 4.8 273.52 7.15 274.92 8.68 276.32 10.2 279.44 10.2 282.57 10.2 285.12 8 287.67 5.8 287.67 3.45L287.67 3.45Q287.67 2.2 286.72 1.4 285.77 0.6 283.87 0.6ZM277.07-19.4Q275.92-17.7 275.92-14.8 275.92-11.9 277.07-10.2 278.22-8.5 279.97-8.5 281.72-8.5 282.89-10.2 284.07-11.9 284.07-14.8 284.07-17.7 282.89-19.4 281.72-21.1 279.97-21.1 278.22-21.1 277.07-19.4ZM325.26-21.9L325.26-21.9 325.26-1.6Q325.26-0.9 325.96-0.9L325.96-0.9 328.31-0.9 328.31 0 325.86 0Q322.86 0 321.66 0.3L321.66 0.3 321.66-6.45Q319.96 0.6 314.16 0.6L314.16 0.6Q311.56 0.6 309.76-1.28 307.96-3.15 307.96-7L307.96-7 307.96-20Q307.96-20.7 307.26-20.7L307.26-20.7 304.91-20.7 304.91-21.6 307.36-21.6Q310.36-21.6 311.56-21.9L311.56-21.9 311.56-6.35Q311.56-3.8 312.69-2.58 313.81-1.35 315.66-1.35L315.66-1.35Q318.31-1.35 319.99-4.58 321.66-7.8 321.66-13.85L321.66-13.85 321.66-20Q321.66-20.7 320.96-20.7L320.96-20.7 318.61-20.7 318.61-21.6 321.06-21.6Q324.06-21.6 325.26-21.9ZM344.56-22.2Q346.51-22.2 347.74-20.55 348.96-18.9 348.96-16.4 348.96-13.9 346.91-13.9L346.91-13.9Q345.71-13.9 344.96-14.65L344.96-14.65Q345.61-16.1 345.61-17.6L345.61-17.6Q345.61-20.25 343.41-20.25L343.41-20.25Q341.56-20.25 340.13-17.18 338.71-14.1 338.71-8.25L338.71-8.25 338.71-1.6Q338.71-0.9 339.41-0.9L339.41-0.9 342.76-0.9 342.76 0 332.06 0 332.06-0.9 334.41-0.9Q335.11-0.9 335.11-1.6L335.11-1.6 335.11-20Q335.11-20.7 334.41-20.7L334.41-20.7 332.06-20.7 332.06-21.6 334.51-21.6Q337.51-21.6 338.71-21.9L338.71-21.9 338.71-15.5Q339.51-18.95 341.06-20.58 342.61-22.2 344.56-22.2ZM353.76-1.6L353.76-1.6 353.76-30.8Q353.76-31.5 353.06-31.5L353.06-31.5 350.71-31.5 350.71-32.4 353.16-32.4Q356.16-32.4 357.36-32.7L357.36-32.7 357.36-1.6Q357.36-0.9 358.06-0.9L358.06-0.9 360.41-0.9 360.41 0 350.71 0 350.71-0.9 353.06-0.9Q353.76-0.9 353.76-1.6Z" opacity="1" transform="matrix(1,0,0,1,0,0)" fill="#ffffff" class="slogan-text-1" data-fill-palette-color="secondary" id="text-1"></path></svg></g></svg></g></svg></g></svg></g><g transform="matrix(1,0,0,1,412.91694149335393,0)"><svg viewBox="0 0 165.36703479287203 165.36703479287203" height="165.36703479287203" width="165.36703479287203"><g data-palette-color="#87c0cd"><rect width="45.20032284338502" height="165.36703479287203" fill="#ffffff" stroke="transparent" data-fill-palette-color="accent" x="0" fill-opacity="1"></rect><rect width="45.20032284338502" height="165.36703479287203" fill="#ffffff" stroke="transparent" data-fill-palette-color="accent" x="55.12234493095734" fill-opacity="0.75"></rect><rect width="45.20032284338502" height="165.36703479287203" fill="#ffffff" stroke="transparent" data-fill-palette-color="accent" x="110.24468986191468" fill-opacity="0.5"></rect></g></svg></g></svg></g><defs></defs></svg><rect width="395.52" height="113.10354822784088" fill="none" stroke="none" visibility="hidden"></rect></g></svg></g></svg>